<?xml version="1.0" standalone="no"?>
<!DOCTYPE svg PUBLIC "-//W3C//DTD SVG 20010904//EN"
 "http://www.w3.org/TR/2001/REC-SVG-20010904/DTD/svg10.dtd">
<svg version="1.0" xmlns="http://www.w3.org/2000/svg"
 width="1064.000000pt" height="1280.000000pt" viewBox="0 0 1064.000000 1280.000000"
 preserveAspectRatio="xMidYMid meet">
<metadata>
Created by potrace 1.15, written by Peter Selinger 2001-2017
</metadata>
<g transform="translate(0.000000,1280.000000) scale(0.100000,-0.100000)"
fill="hsl(240, 9%, 89%)" stroke="none">
<path d="M4495 12788 c-65 -23 -124 -77 -155 -143 -19 -38 -20 -71 -20 -673 0
-700 -3 -665 67 -742 68 -76 98 -84 331 -88 l202 -4 0 -258 0 -258 -72 -7
c-1048 -96 -2036 -491 -2841 -1137 -53 -43 -101 -78 -105 -78 -4 0 -36 28 -70
63 l-62 62 91 90 c114 114 131 140 131 209 0 41 -6 65 -25 98 -37 63 -604 624
-649 643 -49 20 -104 19 -153 -4 -49 -23 -799 -772 -814 -814 -16 -40 -13
-102 4 -145 20 -46 579 -611 643 -649 48 -29 131 -34 174 -12 12 6 68 56 123
110 l101 99 59 -60 59 -59 -85 -88 c-482 -503 -886 -1174 -1139 -1895 -235
-664 -332 -1454 -270 -2183 130 -1508 891 -2882 2105 -3797 799 -603 1732
-958 2755 -1050 187 -16 693 -16 880 0 914 82 1735 366 2480 857 1145 755
1955 1915 2260 3235 203 877 182 1781 -62 2658 -136 492 -382 1028 -673 1471
-345 525 -815 1017 -1325 1386 -577 418 -1223 712 -1915 873 -237 56 -544 104
-752 118 l-103 7 0 258 0 257 203 4 c232 4 262 12 330 88 70 77 67 42 67 742
0 710 3 675 -74 751 -80 77 -19 72 -891 74 -527 1 -790 -2 -810 -9z m1192
-2963 c971 -83 1854 -452 2588 -1084 732 -630 1254 -1499 1459 -2431 81 -368
101 -562 101 -990 0 -380 -8 -489 -61 -790 -191 -1099 -797 -2099 -1689 -2790
-572 -443 -1270 -752 -1975 -874 -311 -54 -400 -61 -790 -61 -390 0 -479 7
-790 61 -1118 194 -2143 825 -2831 1744 -486 648 -774 1374 -876 2210 -26 208
-25 793 0 1000 89 717 303 1326 670 1910 543 862 1382 1528 2342 1860 590 204
1243 287 1852 235z"/>
<path d="M5270 9360 l0 -240 50 0 50 0 0 240 0 240 -50 0 -50 0 0 -240z"/>
<path d="M3180 9028 c-19 -12 -36 -23 -38 -24 -2 -1 217 -387 234 -412 5 -7
84 39 84 49 0 14 -230 409 -238 409 -4 0 -23 -10 -42 -22z"/>
<path d="M7296 8844 c-65 -113 -117 -206 -115 -208 20 -15 81 -47 83 -45 11
13 237 411 234 413 -12 9 -76 46 -79 46 -3 0 -58 -93 -123 -206z"/>
<path d="M5247 8788 l-75 -143 -11 -440 c-6 -242 -16 -593 -21 -780 -18 -611
-29 -1035 -36 -1303 l-7 -263 -54 -26 c-174 -86 -304 -298 -305 -502 -2 -162
50 -296 156 -409 118 -125 258 -186 426 -186 168 0 308 61 426 186 147 156
196 379 127 580 -16 46 -46 110 -67 141 -49 73 -140 156 -211 191 l-55 27 0
57 c0 31 -16 659 -35 1394 l-35 1337 -70 141 c-39 77 -72 140 -74 140 -3 0
-38 -64 -79 -142z m161 -3305 c71 -33 114 -132 93 -210 -22 -80 -101 -143
-181 -143 -48 0 -110 31 -143 69 -31 38 -51 103 -43 144 27 134 151 198 274
140z"/>
<path d="M1621 7466 c-12 -18 -21 -37 -21 -42 0 -10 389 -237 404 -236 5 0 19
18 32 39 l23 39 -203 117 c-112 64 -206 117 -209 117 -3 0 -15 -15 -26 -34z"/>
<path d="M8790 7386 c-107 -62 -195 -117 -197 -122 -2 -5 7 -26 20 -46 l22
-37 135 78 c74 42 167 96 207 119 l71 42 -21 40 c-12 22 -26 40 -32 39 -5 0
-98 -51 -205 -113z"/>
<path d="M1049 5373 c-4 -15 0 -93 5 -93 3 0 110 0 236 0 l230 0 0 48 0 47
-235 0 c-129 0 -235 -1 -236 -2z"/>
<path d="M9120 5328 l0 -48 241 0 240 0 -3 45 -3 46 -238 2 -237 2 0 -47z"/>
<path d="M1805 3353 c-110 -63 -202 -116 -203 -118 -6 -6 8 -39 27 -64 l18
-24 206 119 206 119 -21 35 c-12 19 -24 38 -27 42 -3 4 -96 -45 -206 -109z"/>
<path d="M8611 3429 c-13 -22 -19 -44 -15 -49 14 -13 393 -230 401 -230 5 0
18 18 30 40 l21 40 -96 57 c-53 31 -146 85 -205 120 -60 34 -110 63 -111 63
-1 0 -13 -18 -25 -41z"/>
<path d="M3258 1854 l-117 -205 41 -25 c22 -14 44 -22 48 -17 12 13 230 395
230 403 0 6 -73 51 -81 50 -2 -1 -57 -93 -121 -206z"/>
<path d="M7220 2038 c-19 -12 -37 -23 -39 -24 -2 -2 224 -400 235 -413 2 -2
62 30 83 45 4 4 -232 414 -239 414 -3 0 -21 -10 -40 -22z"/>
<path d="M5270 1290 l0 -240 50 0 50 0 0 240 0 240 -50 0 -50 0 0 -240z"/>
</g>
</svg>
